<?xml version="1.0" standalone="no"?>
<!DOCTYPE svg PUBLIC "-//W3C//DTD SVG 20010904//EN"
 "http://www.w3.org/TR/2001/REC-SVG-20010904/DTD/svg10.dtd">
<svg version="1.0" xmlns="http://www.w3.org/2000/svg"
 width="533.000000pt" height="252.000000pt" viewBox="0 0 533.000000 252.000000"
 preserveAspectRatio="xMidYMid meet">

<g transform="translate(0.000000,252.000000) scale(0.100000,-0.100000)"
fill="#000000" stroke="none">
<path d="M2924 1930 c-55 -22 -54 -15 -54 -532 l0 -478 205 0 205 0 0 481 c0
294 -4 487 -10 499 -5 10 -24 23 -41 29 -37 13 -274 14 -305 1z m194 -87 c-21
-2 -55 -2 -75 0 -21 2 -4 4 37 4 41 0 58 -2 38 -4z m112 -163 l0 -100 -155 0
-155 0 0 100 0 100 155 0 155 0 0 -100z m-265 -151 c0 -7 -8 -15 -17 -17 -18
-3 -25 18 -11 32 10 10 28 1 28 -15z m69 6 c3 -9 -1 -18 -10 -22 -19 -7 -28 2
-21 22 8 19 23 19 31 0z m66 -11 c0 -8 -7 -14 -15 -14 -15 0 -21 21 -9 33 10
9 24 -2 24 -19z m125 1 c0 -5 -19 -11 -42 -13 -34 -3 -43 0 -43 13 0 13 9 16
43 13 23 -2 42 -7 42 -13z m-96 -332 c11 -10 24 -32 27 -50 5 -27 1 -37 -24
-63 -37 -37 -74 -39 -107 -5 -71 70 27 181 104 118z m101 -208 c0 -13 -23 -15
-150 -15 -127 0 -150 2 -150 15 0 13 23 15 150 15 127 0 150 -2 150 -15z"/>
<path d="M2955 1720 c4 -6 55 -10 120 -10 65 0 116 4 120 10 4 6 -38 10 -120
10 -82 0 -124 -4 -120 -10z"/>
<path d="M2955 1680 c-4 -6 38 -10 120 -10 82 0 124 4 120 10 -4 6 -55 10
-120 10 -65 0 -116 -4 -120 -10z"/>
<path d="M2955 1630 c-4 -6 38 -10 119 -10 77 0 126 4 126 10 0 6 -46 10 -119
10 -69 0 -122 -4 -126 -10z"/>
<path d="M3053 1180 c-31 -13 -38 -46 -17 -78 l19 -27 5 33 c7 43 24 46 28 4
3 -33 4 -33 23 -16 25 23 24 59 -3 78 -25 18 -25 18 -55 6z"/>
<path d="M1575 1917 c-3 -6 -4 -199 -3 -427 l3 -415 615 0 615 0 3 414 c1 297
-1 418 -9 427 -16 20 -1217 21 -1224 1z m1195 -407 l0 -380 -580 0 -580 0 0
380 0 380 580 0 580 0 0 -380z"/>
<path d="M2090 1010 l0 -30 100 0 100 0 0 30 0 30 -100 0 -100 0 0 -30z"/>
<path d="M1800 935 c0 -13 49 -15 391 -15 308 0 390 3 387 13 -4 9 -93 13
-391 15 -340 2 -387 0 -387 -13z"/>
<path d="M1988 851 c-152 -3 -279 -9 -282 -12 -13 -13 299 -19 973 -19 709 0
1012 7 921 21 -64 10 -1283 18 -1612 10z"/>
<path d="M1431 678 c-48 -33 -71 -81 -71 -151 0 -112 45 -168 140 -175 69 -5
99 9 130 61 28 46 25 57 -15 57 -23 0 -35 -5 -35 -13 0 -45 -92 -64 -126 -26
-15 17 -19 36 -19 96 0 67 3 77 24 94 35 29 78 24 111 -11 34 -36 80 -42 80
-10 0 11 -15 37 -34 57 -30 33 -39 37 -92 41 -50 3 -64 0 -93 -20z"/>
<path d="M1783 684 c-53 -27 -78 -77 -78 -159 1 -127 51 -179 167 -173 55 3
72 8 94 28 83 77 68 256 -26 302 -43 22 -115 23 -157 2z m141 -75 c20 -24 26
-41 26 -80 0 -54 -20 -103 -45 -113 -32 -12 -83 -6 -106 13 -21 17 -24 28 -24
91 0 66 2 74 28 96 41 35 88 32 121 -7z"/>
<path d="M2080 525 l0 -165 30 0 30 0 1 108 c1 116 3 115 40 -26 l21 -83 36 3
36 3 30 110 31 110 3 -112 3 -113 29 0 30 0 0 165 0 165 -50 0 c-56 0 -48 13
-86 -145 -9 -38 -20 -73 -23 -78 -4 -4 -17 37 -30 90 -12 54 -25 106 -28 116
-3 13 -15 17 -54 17 l-49 0 0 -165z"/>
<path d="M2460 525 l0 -165 35 0 35 0 0 60 0 60 59 0 c49 0 65 4 90 26 27 22
31 32 31 76 0 41 -5 54 -29 79 -28 28 -33 29 -125 29 l-96 0 0 -165z m174 99
c18 -7 23 -69 6 -79 -5 -3 -32 -9 -60 -12 l-50 -6 0 52 0 51 44 0 c24 0 51 -3
60 -6z"/>
<path d="M2770 551 c0 -132 1 -141 23 -167 20 -23 34 -28 86 -32 129 -9 151
21 151 208 l0 130 -35 0 -34 0 -3 -132 -3 -133 -29 -14 c-26 -12 -33 -12 -55
0 -26 15 -26 17 -29 147 l-3 132 -34 0 -35 0 0 -139z"/>
<path d="M3090 660 c0 -29 1 -30 50 -30 l50 0 0 -135 0 -135 30 0 30 0 0 134
0 135 53 3 c48 3 52 5 55 31 l3 27 -135 0 -136 0 0 -30z"/>
<path d="M3410 525 l0 -165 125 0 125 0 0 30 0 30 -95 0 -95 0 0 40 0 40 85 0
85 0 0 30 0 30 -85 0 -85 0 0 35 0 35 90 0 90 0 0 30 0 30 -120 0 -120 0 0
-165z"/>
<path d="M3710 525 l0 -165 35 0 35 0 0 65 0 65 48 0 c65 0 74 -9 80 -74 4
-54 6 -56 33 -56 29 0 29 0 29 64 0 41 -5 70 -14 78 -11 12 -11 18 5 37 29 36
25 87 -10 122 -29 28 -32 29 -135 29 l-106 0 0 -165z m202 79 c11 -23 10 -29
-11 -45 -16 -13 -39 -19 -72 -19 l-49 0 0 45 0 45 60 0 c55 0 61 -2 72 -26z"/>
</g>
</svg>
